# Blender v2.67 (sub 0) OBJ File: 'sphere544.blend'
# www.blender.org
mtllib asteroid_sphere72_v1.mtl
o Sphere_Sphere.003
v -0.474183 1.124532 0.000000
v -0.777052 0.773468 0.000000
v -0.972792 0.402146 0.000000
v -0.905590 -0.000000 0.000000
v -0.796467 -0.331986 0.000000
v -0.607209 -0.612328 0.000000
v -0.412791 -0.989903 0.000000
v -0.349315 1.031545 -0.253794
v -0.636688 0.782897 -0.462582
v -0.726908 0.372588 -0.528129
v -0.685915 -0.000000 -0.498350
v -0.684282 -0.351623 -0.497160
v -0.574375 -0.709820 -0.417308
v -0.343808 -1.016616 -0.249792
v -0.134356 1.038136 -0.413503
v -0.256605 0.824079 -0.789756
v -0.282820 0.379240 -0.870431
v -0.372195 -0.000000 -1.145506
v -0.308575 -0.412403 -0.949697
v -0.243697 -0.784448 -0.750028
v -0.107840 -0.849962 -0.331898
v 0.138964 1.070837 -0.427685
v 0.201202 0.653973 -0.619234
v 0.309222 0.413236 -0.951689
v 0.354428 -0.000000 -1.090824
v 0.258624 -0.348084 -0.795962
v 0.191524 -0.624255 -0.589445
v 0.098038 -0.780402 -0.301732
v -0.000000 1.047377 0.000000
v 0.311237 0.928324 -0.226127
v 0.530537 0.658410 -0.385457
v 0.878650 0.447221 -0.638378
v 0.899573 -0.000000 -0.653575
v 0.860868 -0.438475 -0.625458
v 0.572669 -0.707820 -0.416069
v 0.324236 -0.963563 -0.235572
v 0.324911 0.797188 0.000000
v 0.614517 0.619262 0.000000
v 0.892363 0.370143 0.000000
v 1.134318 -0.000000 0.000000
v 1.165484 -0.478817 0.000000
v 0.830670 -0.824339 0.000000
v 0.456759 -1.086323 0.000000
v 0.261746 0.794165 0.190167
v 0.525499 0.652501 0.381797
v 0.716380 0.367410 0.520480
v 0.734730 -0.000000 0.533815
v 0.770031 -0.393798 0.559461
v 0.697164 -0.853821 0.506523
v 0.316651 -0.943002 0.230061
v 0.099297 0.789338 0.305607
v 0.218420 0.706838 0.672229
v 0.245805 0.331578 0.756510
v 0.255160 -0.000000 0.785295
v 0.300226 -0.401653 0.924003
v 0.233068 -0.751812 0.717313
v 0.124548 -0.968539 0.383321
v -0.000000 -1.062352 0.000000
v -0.114845 0.899673 0.353456
v -0.207153 0.672241 0.637548
v -0.265809 0.357335 0.818074
v -0.248413 -0.000000 0.764526
v -0.251153 -0.338464 0.772968
v -0.183091 -0.598361 0.563488
v -0.112209 -0.880965 0.345343
v -0.296275 0.887765 0.215256
v -0.445058 0.558163 0.323349
v -0.698494 0.358612 0.507484
v -0.937630 -0.000000 0.681223
v -0.814174 -0.415509 0.591532
v -0.463885 -0.580243 0.337028
v -0.273435 -0.825852 0.198660
vt 0.250000 0.500000
vt 0.250000 0.625000
vt 0.150000 0.500000
vt 0.250000 0.125000
vt 0.250000 0.250000
vt 0.150000 0.125000
vt 0.250000 0.750000
vt 0.150000 0.750000
vt 0.250000 0.375000
vt 0.150000 0.250000
vt 0.250000 0.875000
vt 0.150000 0.375000
vt 0.150000 0.625000
vt 0.050000 0.750000
vt 0.050000 0.250000
vt 0.150000 0.875000
vt 0.050000 0.500000
vt 1.050000 0.625000
vt 1.050000 0.750000
vt 0.950000 0.625000
vt 1.050000 0.250000
vt 1.050000 0.375000
vt 0.950000 0.250000
vt 1.050000 0.875000
vt 0.950000 0.875000
vt 1.050000 0.500000
vt 0.950000 0.500000
vt 1.050000 0.125000
vt 0.950000 0.750000
vt 0.850000 0.750000
vt 0.950000 0.375000
vt 0.850000 0.250000
vt 0.850000 0.875000
vt 0.850000 0.500000
vt 0.950000 0.125000
vt 0.850000 0.125000
vt 0.850000 0.625000
vt 0.750000 0.625000
vt 0.850000 0.375000
vt 0.750000 0.250000
vt 0.750000 0.875000
vt 0.750000 0.500000
vt 0.750000 0.125000
vt 0.750000 0.750000
vt 0.650000 0.625000
vt 0.750000 0.375000
vt 0.650000 0.375000
vt 0.650000 0.875000
vt 0.650000 0.500000
vt 0.650000 0.125000
vt 0.650000 0.750000
vt 0.550000 0.625000
vt 0.650000 0.250000
vt 0.550000 0.250000
vt 0.550000 0.875000
vt 0.550000 0.500000
vt 0.550000 0.750000
vt 0.450000 0.750000
vt 0.550000 0.375000
vt 0.450000 0.375000
vt 0.450000 0.500000
vt 0.550000 0.125000
vt 0.450000 0.125000
vt 0.450000 0.625000
vt 0.350000 0.625000
vt 0.450000 0.250000
vt 0.350000 0.375000
vt 0.450000 0.875000
vt 0.350000 0.875000
vt 0.350000 0.500000
vt 0.350000 0.250000
vt 0.248377 1.000000
vt 0.307825 0.000000
vt 0.050000 0.125000
vt 0.050000 0.875000
vt 1.307825 0.000000
vt 1.248377 1.000000
vt 0.350000 0.125000
vt 0.350000 0.750000
vt 0.050000 0.625000
vt 0.050000 0.375000
vn -0.958251 -0.207953 -0.196173
vn -0.975921 0.214637 -0.038545
vn -0.904447 -0.071078 -0.420576
vn -0.577624 -0.769677 0.271859
vn -0.799066 -0.590655 0.112033
vn -0.303110 -0.908567 -0.287393
vn -0.770165 0.591266 0.239174
vn -0.691427 0.535203 -0.485244
vn -0.910245 -0.400250 -0.105777
vn -0.797143 -0.521683 -0.303903
vn -0.337443 0.911435 0.235359
vn -0.878506 -0.241768 -0.411969
vn -0.828974 0.118961 -0.546434
vn -0.206519 0.587390 -0.782495
vn -0.065554 -0.716269 -0.694723
vn -0.195013 0.924833 -0.326487
vn -0.430433 0.033906 -0.901975
vn -0.366741 0.423383 -0.828364
vn 0.275460 0.535813 -0.798090
vn -0.282571 -0.521470 -0.805109
vn 0.235755 -0.702567 -0.671407
vn -0.168706 0.951476 -0.257241
vn 0.410810 0.841182 -0.351573
vn 0.385907 -0.148686 -0.910459
vn 0.394971 -0.815149 -0.423658
vn 0.464217 0.686026 -0.560198
vn 0.506211 0.827509 -0.242744
vn 0.286477 -0.603107 -0.744407
vn 0.289865 -0.725547 -0.624104
vn 0.710440 0.703635 0.011414
vn 0.790033 -0.010254 -0.612964
vn -0.018159 -0.822443 -0.568499
vn 0.011597 -0.784020 -0.620594
vn 0.741600 0.506211 -0.440168
vn 0.807855 0.572588 0.139531
vn 0.568773 -0.409101 -0.713492
vn 0.641163 -0.766442 -0.038270
vn 0.600818 0.771294 0.209937
vn 0.952544 0.283578 0.110538
vn 0.311655 -0.948546 0.055391
vn 0.615467 0.786737 0.047304
vn 0.707205 0.362957 0.606677
vn 0.942320 -0.325663 0.077120
vn 0.700125 -0.101108 0.706809
vn 0.415906 0.860012 0.295541
vn 0.674001 0.133061 0.726615
vn 0.193793 -0.914151 0.355998
vn 0.568560 0.750969 0.335765
vn 0.269509 0.200262 0.941923
vn 0.550829 -0.660604 0.510056
vn -0.009980 -0.667043 0.744926
vn 0.306223 0.855678 0.417158
vn 0.240120 0.197699 0.950377
vn 0.258034 0.668935 0.697073
vn -0.283517 0.686850 0.669179
vn 0.223975 -0.126652 0.966308
vn -0.254250 -0.309336 0.916318
vn -0.088961 -0.009003 0.995972
vn -0.002777 -0.905698 0.423902
vn -0.477065 -0.747032 0.462905
vn -0.147130 0.256050 0.955382
vn -0.538224 0.657155 0.527665
vn -0.408063 -0.672597 0.617267
vn -0.652882 -0.598346 0.464431
vn 0.053011 0.840632 0.538957
vn -0.351939 0.691275 0.631062
vn -0.778344 0.048189 0.625965
vn -0.434736 -0.817957 0.376690
vn 0.246101 0.926939 0.283181
vn -0.083254 -0.995727 -0.039583
vn -0.409619 -0.729179 0.548143
vn -0.501267 0.699026 0.509964
usemtl None
s 1
f 4/1/1 3/2/2 11/3/3
f 7/4/4 6/5/5 14/6/6
f 3/2/2 2/7/7 9/8/8
f 6/5/5 5/9/9 13/10/10
f 2/7/7 1/11/11 9/8/8
f 5/9/9 4/1/1 12/12/12
f 10/13/13 9/8/8 16/14/14
f 13/10/10 12/12/12 20/15/15
f 9/8/8 8/16/16 16/14/14
f 12/12/12 11/3/3 18/17/17
f 11/3/3 10/13/13 18/17/17
f 14/6/6 13/10/10 20/15/15
f 17/18/18 16/19/14 24/20/19
f 20/21/15 19/22/20 27/23/21
f 16/19/14 15/24/22 22/25/23
f 19/22/20 18/26/17 25/27/24
f 18/26/17 17/18/18 24/20/19
f 21/28/25 20/21/15 27/23/21
f 24/20/19 23/29/26 31/30/27
f 27/23/21 26/31/28 35/32/29
f 23/29/26 22/25/23 30/33/30
f 26/31/28 25/27/24 33/34/31
f 25/27/24 24/20/19 33/34/31
f 28/35/32 27/23/21 36/36/33
f 32/37/34 31/30/27 39/38/35
f 35/32/29 34/39/36 42/40/37
f 31/30/27 30/33/30 37/41/38
f 34/39/36 33/34/31 40/42/39
f 33/34/31 32/37/34 39/38/35
f 36/36/33 35/32/29 43/43/40
f 39/38/35 38/44/41 46/45/42
f 42/40/37 41/46/43 48/47/44
f 38/44/41 37/41/38 44/48/45
f 41/46/43 40/42/39 48/47/44
f 40/42/39 39/38/35 47/49/46
f 43/43/40 42/40/37 50/50/47
f 46/45/42 45/51/48 53/52/49
f 49/53/50 48/47/44 56/54/51
f 45/51/48 44/48/45 51/55/52
f 48/47/44 47/49/46 54/56/53
f 47/49/46 46/45/42 53/52/49
f 50/50/47 49/53/50 56/54/51
f 53/52/49 52/57/54 60/58/55
f 56/54/51 55/59/56 63/60/57
f 52/57/54 51/55/52 60/58/55
f 55/59/56 54/56/53 62/61/58
f 54/56/53 53/52/49 62/61/58
f 57/62/59 56/54/51 65/63/60
f 61/64/61 60/58/55 68/65/62
f 64/66/63 63/60/57 70/67/64
f 60/58/55 59/68/65 66/69/66
f 63/60/57 62/61/58 69/70/67
f 62/61/58 61/64/61 69/70/67
f 65/63/60 64/66/63 71/71/68
f 1/11/11 29/72/69 8/16/16
f 58/73/70 7/4/4 14/6/6
f 58/73/70 14/6/6 21/74/25
f 8/16/16 29/72/69 15/75/22
f 58/76/70 21/28/25 28/35/32
f 15/24/22 29/77/69 22/25/23
f 58/76/70 28/35/32 36/36/33
f 22/25/23 29/77/69 30/33/30
f 58/76/70 36/36/33 43/43/40
f 30/33/30 29/77/69 37/41/38
f 58/73/70 43/43/40 50/50/47
f 37/41/38 29/77/69 44/48/45
f 58/73/70 50/50/47 57/62/59
f 44/48/45 29/72/69 51/55/52
f 58/73/70 57/62/59 65/63/60
f 51/55/52 29/72/69 59/68/65
f 58/73/70 65/63/60 72/78/71
f 59/68/65 29/72/69 66/69/66
f 68/65/62 67/79/72 2/7/7
f 71/71/68 70/67/64 6/5/5
f 67/79/72 66/69/66 1/11/11
f 70/67/64 69/70/67 5/9/9
f 58/73/70 72/78/71 7/4/4
f 66/69/66 29/72/69 1/11/11
f 69/70/67 68/65/62 3/2/2
f 72/78/71 71/71/68 7/4/4
f 3/2/2 10/13/13 11/3/3
f 6/5/5 13/10/10 14/6/6
f 10/13/13 3/2/2 9/8/8
f 5/9/9 12/12/12 13/10/10
f 1/11/11 8/16/16 9/8/8
f 4/1/1 11/3/3 12/12/12
f 17/80/18 10/13/13 16/14/14
f 12/12/12 19/81/20 20/15/15
f 8/16/16 15/75/22 16/14/14
f 19/81/20 12/12/12 18/17/17
f 10/13/13 17/80/18 18/17/17
f 21/74/25 14/6/6 20/15/15
f 16/19/14 23/29/26 24/20/19
f 19/22/20 26/31/28 27/23/21
f 23/29/26 16/19/14 22/25/23
f 26/31/28 19/22/20 25/27/24
f 25/27/24 18/26/17 24/20/19
f 28/35/32 21/28/25 27/23/21
f 32/37/34 24/20/19 31/30/27
f 26/31/28 34/39/36 35/32/29
f 31/30/27 23/29/26 30/33/30
f 34/39/36 26/31/28 33/34/31
f 24/20/19 32/37/34 33/34/31
f 27/23/21 35/32/29 36/36/33
f 31/30/27 38/44/41 39/38/35
f 34/39/36 41/46/43 42/40/37
f 38/44/41 31/30/27 37/41/38
f 41/46/43 34/39/36 40/42/39
f 40/42/39 33/34/31 39/38/35
f 35/32/29 42/40/37 43/43/40
f 38/44/41 45/51/48 46/45/42
f 49/53/50 42/40/37 48/47/44
f 45/51/48 38/44/41 44/48/45
f 40/42/39 47/49/46 48/47/44
f 39/38/35 46/45/42 47/49/46
f 42/40/37 49/53/50 50/50/47
f 45/51/48 52/57/54 53/52/49
f 48/47/44 55/59/56 56/54/51
f 52/57/54 45/51/48 51/55/52
f 55/59/56 48/47/44 54/56/53
f 54/56/53 47/49/46 53/52/49
f 57/62/59 50/50/47 56/54/51
f 61/64/61 53/52/49 60/58/55
f 64/66/63 56/54/51 63/60/57
f 51/55/52 59/68/65 60/58/55
f 63/60/57 55/59/56 62/61/58
f 53/52/49 61/64/61 62/61/58
f 56/54/51 64/66/63 65/63/60
f 60/58/55 67/79/72 68/65/62
f 71/71/68 64/66/63 70/67/64
f 67/79/72 60/58/55 66/69/66
f 70/67/64 63/60/57 69/70/67
f 61/64/61 68/65/62 69/70/67
f 72/78/71 65/63/60 71/71/68
f 3/2/2 68/65/62 2/7/7
f 70/67/64 5/9/9 6/5/5
f 2/7/7 67/79/72 1/11/11
f 69/70/67 4/1/1 5/9/9
f 4/1/1 69/70/67 3/2/2
f 71/71/68 6/5/5 7/4/4
